<svg width="29" height="26" viewBox="0 0 29 26" fill="none" xmlns="http://www.w3.org/2000/svg">
<path d="M12.3241 1.02691C12.3241 0.459756 11.8373 0 11.2367 0C10.6362 0 10.1493 0.459756 10.1493 1.02691V2.05672C10.1493 2.92269 10.433 3.72608 10.9176 4.38848C8.89807 5.04435 7.41632 6.79193 7.26267 8.88481H6.90507L6.89158 8.88478C5.0899 8.87776 3.63537 7.49276 3.64283 5.79133L3.65173 3.75722C3.65421 3.19007 3.16938 2.72842 2.56881 2.72607C1.96825 2.72373 1.47939 3.18159 1.47691 3.74873L1.46799 5.78284C1.45558 8.61856 3.87978 10.9269 6.8826 10.9386L6.90507 10.9386H7.24949V13.0057H1.08742C0.486861 13.0057 0 13.4655 0 14.0326C0 14.5997 0.486861 15.0595 1.08742 15.0595H7.24949V17.7874H6.90507L6.8826 17.7876C3.87978 17.7992 1.45558 20.1076 1.46799 22.9432L1.47691 24.9773C1.47939 25.5444 1.96825 26.0023 2.56881 26C3.16938 25.9977 3.65421 25.536 3.65173 24.9688L3.64283 22.9347C3.63537 21.2333 5.0899 19.8484 6.89158 19.8414L6.90507 19.8412H7.57765C8.49775 22.6246 11.2485 24.6447 14.499 24.6447C17.7494 24.6447 20.5003 22.6246 21.4204 19.8412H22.0928L22.1063 19.8414C23.9081 19.8484 25.3626 21.2333 25.3551 22.9347L25.3463 24.9688C25.3438 25.536 25.8286 25.9977 26.4292 26C27.0297 26.0023 27.5186 25.5444 27.5211 24.9773L27.5299 22.9432C27.5424 20.1076 25.1182 17.7992 22.1153 17.7876L22.0928 17.7874H21.7485V15.0595H27.9126C28.5131 15.0595 29 14.5997 29 14.0326C29 13.4655 28.5131 13.0057 27.9126 13.0057H21.7485V10.9386H22.0928L22.1153 10.9386C25.1182 10.9269 27.5424 8.61856 27.5299 5.78284L27.5211 3.74873C27.5186 3.18159 27.0297 2.72373 26.4292 2.72607C25.8286 2.72842 25.3438 3.19007 25.3463 3.75722L25.3551 5.79133C25.3626 7.49276 23.9081 8.87776 22.1063 8.88478L22.0928 8.88481H21.7353C21.5816 6.79193 20.0999 5.04437 18.0804 4.38848C18.5649 3.72608 18.8487 2.92269 18.8487 2.05672V1.02691C18.8487 0.459756 18.3618 0 17.7613 0C17.1607 0 16.6738 0.459756 16.6738 1.02691V2.05672C16.6738 3.19101 15.7001 4.11055 14.499 4.11055C13.2979 4.11055 12.3241 3.19101 12.3241 2.05672V1.02691ZM9.42434 9.24514C9.42434 7.5437 10.8849 6.1644 12.6866 6.1644H16.3114C18.113 6.1644 19.5736 7.5437 19.5736 9.24514V17.7986C19.5736 20.4453 17.3016 22.5909 14.499 22.5909C11.6963 22.5909 9.42434 20.4453 9.42434 17.7986V9.24514Z" fill="white"/>
<path d="M11.072 4.86403L11.7288 4.65071L11.3211 4.0933C10.8959 3.51198 10.6493 2.81102 10.6493 2.05672V1.02691C10.6493 0.762488 10.8849 0.5 11.2367 0.5C11.5885 0.5 11.8241 0.762492 11.8241 1.02691V2.05672C11.8241 3.49374 13.0491 4.61055 14.499 4.61055C15.9489 4.61055 17.1738 3.49374 17.1738 2.05672V1.02691C17.1738 0.762493 17.4095 0.5 17.7613 0.5C18.113 0.5 18.3487 0.762492 18.3487 1.02691V2.05672C18.3487 2.81102 18.1021 3.51198 17.6768 4.09328L17.2691 4.6507L17.9259 4.86403C19.7704 5.46305 21.0992 7.0496 21.2366 8.92142L21.2707 9.38481H21.7353L22.0928 9.38481L22.0939 9.38481L22.1073 9.38478L22.1083 9.38478C24.1589 9.37678 25.864 7.79344 25.8551 5.78916C25.8551 5.78914 25.8551 5.78913 25.8551 5.78911L25.8463 3.75505C25.8451 3.49072 26.0794 3.22744 26.4311 3.22607C26.783 3.2247 27.02 3.48641 27.0211 3.7509L27.0299 5.78502L27.03 5.78504C27.0411 8.31791 24.8674 10.4278 22.1133 10.4386L22.0928 10.4386L22.0919 10.4386L21.7485 10.4386H21.2485V10.9386V13.0057V13.5057H21.7485H27.9126C28.2643 13.5057 28.5 13.7682 28.5 14.0326C28.5 14.297 28.2643 14.5595 27.9126 14.5595H21.7485H21.2485V15.0595V17.7874V18.2874H21.7485H22.0913H22.0928L22.1122 18.2875L22.1134 18.2875C24.8674 18.2982 27.0411 20.4082 27.03 22.941L27.0299 22.941L27.0211 24.9751C27.02 25.2396 26.783 25.5014 26.4311 25.5C26.0795 25.4986 25.8451 25.2353 25.8463 24.971L25.8551 22.9369C25.8551 22.9369 25.8551 22.9369 25.8551 22.9369C25.864 20.9331 24.1597 19.3501 22.1098 19.3414C22.1093 19.3414 22.1088 19.3414 22.1082 19.3414L22.0979 19.3413V19.3412H22.0928H21.4204H21.059L20.9456 19.6843C20.0961 22.2541 17.5431 24.1447 14.499 24.1447C11.4548 24.1447 8.90188 22.2541 8.05238 19.6843L7.93897 19.3412H7.57765L6.90507 19.3412L6.89998 19.3413L6.88965 19.3414C6.88914 19.3414 6.88864 19.3414 6.88814 19.3414C4.83826 19.3501 3.13405 20.9332 3.14283 22.9369L3.15173 24.971C3.15289 25.2353 2.91854 25.4986 2.56688 25.5C2.21501 25.5014 1.97806 25.2396 1.97691 24.9751L1.96799 22.941C1.9569 20.4082 4.1306 18.2982 6.88453 18.2875L6.88565 18.2875L6.90507 18.2874H6.90656H7.24949H7.74949V17.7874V15.0595V14.5595H7.24949H1.08742C0.735651 14.5595 0.5 14.297 0.5 14.0326C0.5 13.7682 0.735652 13.5057 1.08742 13.5057H7.24949H7.74949V13.0057V10.9386V10.4386H7.24949L6.90596 10.4386L6.90507 10.4386L6.88455 10.4386C6.8844 10.4386 6.88425 10.4386 6.8841 10.4386C4.13036 10.4276 1.9569 8.31778 1.96799 5.78503L1.97691 3.75092V3.75092C1.97806 3.48639 2.21501 3.2247 2.56686 3.22607C2.91856 3.22744 3.15289 3.49072 3.15173 3.75503L3.14283 5.78914C3.13405 7.79341 4.83909 9.37678 6.88964 9.38478L6.89056 9.38478L6.90404 9.38481H6.90507H7.26267H7.72731L7.76133 8.92142C7.89875 7.04961 9.22762 5.46303 11.072 4.86403ZM12.6866 5.6644C10.6361 5.6644 8.92434 7.24097 8.92434 9.24514V17.7986C8.92434 20.7481 11.4475 23.0909 14.499 23.0909C17.5504 23.0909 20.0736 20.7481 20.0736 17.7986V9.24514C20.0736 7.24097 18.3618 5.6644 16.3114 5.6644H12.6866Z" stroke="white" stroke-opacity="0.31"/>
</svg>
